<svg
        id="Logo"
        xmlns="http://www.w3.org/2000/svg"
        width="94.741081mm"
        height="23.74198mm"
        viewBox="-30 0 335.69674 84.125124"
>
    <title>eduzone-logo-r4</title>
    <g id="g4148">
        <g id="g4154">
            <path id="path4156"
                  d="M142.25,61.78c0-1.65-1.06-2.94-2.24-2.94H121.42l18.82-28a4.66,4.66,0,0,0,.94-2.59,2.44,2.44,0,0,0-2.47-2.59H115.54c-1.41,0-2.24,1.41-2.24,2.94s1.06,2.94,2.24,2.94h16.71l-18.71,28a4.56,4.56,0,0,0-1.06,2.71A2.44,2.44,0,0,0,115,64.84h24.82a3,3,0,0,0,2.47-3.06"
                  transform="translate(-0.05 -1.94)" fill="#b4b3b3"/>
        </g>
        <g id="g4158">
            <path id="path4160"
                  d="M166.07,25.94a14.72,14.72,0,0,0-5.06-.82A16.12,16.12,0,0,0,145.13,41v8.47A16.24,16.24,0,0,0,149,59.7l3.41-6.82a10.93,10.93,0,0,1-.59-3.41V41c0-4.82,4-9.65,9.18-9.65a6.85,6.85,0,0,1,2.24.35Z"
                  transform="translate(-0.05 -1.94)" fill="#b4b3b3"/>
        </g>
        <g id="g4162">
            <path id="path4164"
                  d="M177,49.27V40.8a16,16,0,0,0-3.88-10.24l-3.53,6.82a8.44,8.44,0,0,1,.71,3.41v8.47c0,5.06-4.24,9.76-9.29,9.76a6.85,6.85,0,0,1-2.24-.35L156,64.33a14.83,14.83,0,0,0,5.06.94c8.59,0,16-7.65,16-16"
                  transform="translate(-0.05 -1.94)" fill="#b4b3b3"/>
        </g>
        <g id="g4166">
            <path id="path4168"
                  d="M214.95,62.18V40.89c0-8.71-6.59-15.88-14.24-15.88a12,12,0,0,0-10.82,6.24V27.83c0-1.41-1.41-2.35-3.06-2.35-2,0-3.29.94-3.29,2.35V62.18c0,1.29,1.41,2.47,3.29,2.47s3.41-1.29,3.41-2.47V40.89c0-6,4.47-9.65,8.82-9.65,5.06,0,9.18,4.82,9.18,9.65V62.18c0,1.65,1.65,2.47,3.29,2.47s3.41-.82,3.41-2.47"
                  transform="translate(-0.05 -1.94)" fill="#b4b3b3"/>
        </g>
        <g id="g4170">
            <path id="path4172"
                  d="M92,65.28a16.23,16.23,0,0,0,16-15.88V27.86c0-1.18-1.41-2.35-3.29-2.35s-3.41,1.18-3.41,2.35V49.51c0,4.94-4.12,9.65-9.18,9.65s-9.29-4.82-9.29-9.65V28.1c0-1.18-1.65-2.47-3.29-2.47-1.88,0-3.41,1.18-3.41,2.47V49.51C75.9,57.86,83.19,65.28,92,65.28"
                  transform="translate(-0.05 -1.94)" fill="#b5cd1e"/>
        </g>
        <g id="g4174">
            <path id="path4176"
                  d="M61.86,51.59c0,2.24-4,7.53-9.18,7.53-4.94,0-9.18-4.82-9.18-9.76V41c0-4.82,4.12-9.65,9.18-9.65A9.3,9.3,0,0,1,61.86,41ZM65.27,1.94c-1.88,0-3.41.94-3.41,2.35V31.35a12,12,0,0,0-10.59-6.24C43.39,25.12,36.8,32.29,36.8,41v8.35c0,8.35,6.59,16,14.24,16,5.06,0,9.53-3.06,11.18-6.47v3.29c0,1.18,1.41,2.47,3.06,2.47,1.88,0,3.29-1.18,3.29-2.47V4.41c.12-1.41-1.29-2.47-3.29-2.47"
                  transform="translate(-0.05 -1.94)" fill="#b5cd1e"/>
        </g>
        <g id="g4178">
            <path id="path4180"
                  d="M6.75,39.48A9.09,9.09,0,0,1,16,30.54a9.29,9.29,0,0,1,9.18,9.29c0,2.12-.71,2.59-3.53,2.59H6.75V39.48ZM28,56.3c-2,0-3.76,3.18-9.76,3.18-6.71,0-11.53-3.88-11.53-10V47H24.52c3.65,0,7.18-.24,7.18-6.82A15.29,15.29,0,0,0,16.16,25C7.22,25.12,0,32.3,0,40.65v8.71c0,9.53,7.41,16,17.88,16,7.88,0,12.82-3.76,12.82-5.88,0-1.29-1.18-3.18-2.71-3.18"
                  transform="translate(-0.05 -1.94)" fill="#b5cd1e"/>
        </g>
        <g id="g4182">
            <path id="path4184"
                  d="M227.86,39.48a9.09,9.09,0,0,1,9.29-8.94,9.29,9.29,0,0,1,9.18,9.29c0,2.12-.71,2.59-3.53,2.59H227.86ZM249.15,56.3c-2,0-3.76,3.18-9.76,3.18-6.71,0-11.53-3.88-11.53-10V47h17.76c3.65,0,7.18-.24,7.18-6.82A15.29,15.29,0,0,0,237.27,25a16,16,0,0,0-16.12,15.65v8.71c0,9.53,7.41,16,18,16,7.88,0,12.82-3.76,12.82-5.88-.12-1.29-1.29-3.18-2.82-3.18"
                  transform="translate(-0.05 -1.94)" fill="#b4b3b3"/>
        </g>
    </g>
    <path d="M252.8,9.89a6.43,6.43,0,0,1,.66-3,7.59,7.59,0,0,1,1.69-2.45,7.16,7.16,0,0,1,2.45-1.69,8.24,8.24,0,0,1,3-.66,6.69,6.69,0,0,1,3,.66,6.37,6.37,0,0,1,2.45,1.69,8.77,8.77,0,0,1,1.69,2.45,8.24,8.24,0,0,1,.66,3,6.69,6.69,0,0,1-.66,3,7.59,7.59,0,0,1-1.69,2.45A8.77,8.77,0,0,1,263.63,17a8.24,8.24,0,0,1-3,.66,6.69,6.69,0,0,1-3-.66,6.37,6.37,0,0,1-2.45-1.69,8.77,8.77,0,0,1-1.69-2.45A8.24,8.24,0,0,1,252.8,9.89Zm1.22,0a6.32,6.32,0,0,0,.56,2.64A8.59,8.59,0,0,0,256,14.69a7.19,7.19,0,0,0,2.16,1.41,6.43,6.43,0,0,0,5.27,0,8.59,8.59,0,0,0,2.16-1.41A5.77,5.77,0,0,0,267,12.52a6.43,6.43,0,0,0,0-5.27,7.15,7.15,0,0,0-1.6-2.07,7.19,7.19,0,0,0-2.16-1.41,6.43,6.43,0,0,0-5.27,0,8.59,8.59,0,0,0-2.16,1.41,5.77,5.77,0,0,0-1.41,2.16A7.21,7.21,0,0,0,254,9.89Zm5,4.52h-1.13v-9h3.48a2.71,2.71,0,0,1,2.16.66,2.3,2.3,0,0,1,.66,1.88,3.38,3.38,0,0,1-.19,1,2,2,0,0,1-1.22,1.22l-.85.28,2.73,4h-1.32l-2.73-4H259v4Zm0-5h2.35a2.75,2.75,0,0,0,.85-.19,1,1,0,0,0,.56-.47,1.15,1.15,0,0,0,.28-.85,1.77,1.77,0,0,0-.19-.75,1.13,1.13,0,0,0-.47-.47,4.59,4.59,0,0,0-.66-.28,2.07,2.07,0,0,0-.75-.09h-2V9.42Z"
          transform="translate(-0.05 -1.94)" fill="#b4b3b3"/>
</svg>